<svg class="poloto" width="800" height="500" viewBox="0 0 800 500" xmlns="http://www.w3.org/2000/svg">
	<style>
 .poloto{
  stroke-linecap:round;
  stroke-linejoin:round;
  font-family:Roboto,sans-serif;
  font-size:16px;
}
.poloto_background{fill:AliceBlue;}
.poloto_scatter{stroke-width:7}
.poloto_line{stroke-width:2}
.poloto_text{fill: black;}
.poloto_name{font-size:24px;dominant-baseline:start;text-anchor:middle;}
.poloto_where{dominant-baseline:middle;text-anchor:start}
.poloto_text.poloto_legend{font-size:20px;dominant-baseline:middle;text-anchor:start;}
.poloto_text.poloto_ticks.poloto_y{dominant-baseline:middle;text-anchor:end}
.poloto_text.poloto_ticks.poloto_x{dominant-baseline:start;text-anchor:middle}
.poloto_imgs.poloto_ticks{stroke: black;stroke-width:3;fill:none;stroke-dasharray:none}
.poloto_grid{stroke:gray;stroke-width:0.5}

.poloto0.poloto_stroke{stroke:blue;}
.poloto1.poloto_stroke{stroke:red;}
.poloto2.poloto_stroke{stroke:green;}
.poloto3.poloto_stroke{stroke:gold;}
.poloto4.poloto_stroke{stroke:aqua;}
.poloto5.poloto_stroke{stroke:lime;}
.poloto6.poloto_stroke{stroke:orange;}
.poloto7.poloto_stroke{stroke:chocolate;}
.poloto0.poloto_fill{fill:blue;}
.poloto1.poloto_fill{fill:red;}
.poloto2.poloto_fill{fill:green;}
.poloto3.poloto_fill{fill:gold;}
.poloto4.poloto_fill{fill:aqua;}
.poloto5.poloto_fill{fill:lime;}
.poloto6.poloto_fill{fill:orange;}
.poloto7.poloto_fill{fill:chocolate;}
 .poloto_background{fill:white;}
	</style>
	<circle r="1e5" class="poloto_background"/>
	<g id="poloto_plot0" class="poloto_plot poloto_imgs poloto_histo poloto0 poloto_fill">
		<rect x="150.00" y="330.00" width="477.65392481358344" height="20"/>
		<rect x="150.00" y="270.00" width="478.792202571604" height="20"/>
		<rect x="150.00" y="210.00" width="307.7282751077418" height="20"/>
		<rect x="150.00" y="150.00" width="500" height="20"/>
	</g>
	<g id="poloto_plot1" class="poloto_plot poloto_imgs poloto_histo poloto1 poloto_fill">
		<rect x="150.00" y="330.00" width="470.0399751375945" height="20"/>
		<rect x="150.00" y="270.00" width="476.3572864830651" height="20"/>
		<rect x="150.00" y="210.00" width="100.86046531683505" height="20"/>
		<rect x="150.00" y="150.00" width="493.89248167956885" height="20"/>
	</g>
	<g id="poloto_plot2" class="poloto_plot poloto_imgs poloto_histo poloto2 poloto_fill">
		<rect x="150.00" y="330.00" width="411.28786181214014" height="20"/>
		<rect x="150.00" y="270.00" width="451.33476014314374" height="20"/>
		<rect x="150.00" y="210.00" width="14.924421323900845" height="20"/>
		<rect x="150.00" y="150.00" width="429.13908305468624" height="20"/>
	</g>
	<g class="poloto_legend poloto_imgs poloto_bars poloto0 poloto_fill"><rect x="680" y="76.25" width="50" height="7.5" rx="5" ry="5"/></g>
	<g class="poloto_legend poloto_imgs poloto_bars poloto1 poloto_fill"><rect x="680" y="126.25" width="50" height="7.5" rx="5" ry="5"/></g>
	<g class="poloto_legend poloto_imgs poloto_bars poloto2 poloto_fill"><rect x="680" y="176.25" width="50" height="7.5" rx="5" ry="5"/></g>
	<text class="poloto_legend poloto_text poloto_bars poloto0" x="675" y="100"> 64M</text>
	<text class="poloto_legend poloto_text poloto_bars poloto1" x="675" y="150"> 10M</text>
	<text class="poloto_legend poloto_text poloto_bars poloto2" x="675" y="200"> 1M</text>
	<text class="poloto_text poloto_name poloto_title" x="400.00" y="37.50">Saxpy</text>
	<text class="poloto_text poloto_name poloto_x" x="400.00" y="481.25">GFlops</text>
	<text class="poloto_text poloto_name poloto_y" x="37.50" y="250.00" transform="rotate(-90,37.50,250.00)"></text>
	<text class="poloto_text poloto_ticks poloto_y">
		<tspan x="135.00" y="340.00">ocl</tspan>
		<tspan x="135.00" y="280.00">cuda</tspan>
		<tspan x="135.00" y="220.00">autograph</tspan>
		<tspan x="135.00" y="160.00">krnl</tspan>
	</text>
	<g class="poloto_imgs poloto_ticks poloto_y">
		<line x1="150.00" x2="144.00" y1="340.00" y2="340.00"/>
		<line x1="150.00" x2="144.00" y1="280.00" y2="280.00"/>
		<line x1="150.00" x2="144.00" y1="220.00" y2="220.00"/>
		<line x1="150.00" x2="144.00" y1="160.00" y2="160.00"/>
	</g>
	<text class="poloto_text poloto_ticks poloto_x">
		<tspan x="150.00" y="430.00">0</tspan>
		<tspan x="241.74" y="430.00">10</tspan>
		<tspan x="333.49" y="430.00">20</tspan>
		<tspan x="425.23" y="430.00">30</tspan>
		<tspan x="516.97" y="430.00">40</tspan>
		<tspan x="608.72" y="430.00">50</tspan>
	</text>
	<g class="poloto_imgs poloto_ticks poloto_x">
		<line x1="150.00" x2="150.00" y1="400.00" y2="405.00"/>
		<line x1="241.74" x2="241.74" y1="400.00" y2="405.00"/>
		<line x1="333.49" x2="333.49" y1="400.00" y2="405.00"/>
		<line x1="425.23" x2="425.23" y1="400.00" y2="405.00"/>
		<line x1="516.97" x2="516.97" y1="400.00" y2="405.00"/>
		<line x1="608.72" x2="608.72" y1="400.00" y2="405.00"/>
	</g>
	<path class="poloto_imgs poloto_ticks poloto_x" style="stroke-dasharray:9.174316376065342;stroke-dashoffset:-0;" d=" M 150.00 400.00 L 650.00 400.00"/>
	<path class="poloto_imgs poloto_ticks poloto_y" d=" M 150.00 400.00 L 150.00 100.00"/>
</svg>
